<svg width="34" height="34" viewBox="0 0 34 34" fill="none" xmlns="http://www.w3.org/2000/svg">
<path d="M16.83 0C7.55 0 0 7.55 0 16.84C0 21.78 2.14001 26.23 5.54001 29.32C8.53001 32.02 12.49 33.67 16.83 33.67C21.16 33.67 25.12 32.02 28.11 29.32C31.51 26.24 33.66 21.79 33.66 16.84C33.66 7.55 26.11 0 16.83 0ZM7.31 28.5V24.25C7.31 22.94 8.09 21.78 9.31 21.29L12.6 19.96C14.06 19.38 15 17.98 15 16.41V16.04L14.74 15.78C13.75 14.81 13.19 12.96 13.19 10.71C13.19 8.74 14.15 6.62 16.83 6.62C19.51 6.62 20.47 8.74 20.47 10.71C20.47 12.96 19.91 14.81 18.92 15.78L18.66 16.04V16.41C18.66 17.98 19.6 19.38 21.06 19.96L24.35 21.29C25.56 21.78 26.35 22.94 26.35 24.25V28.5C23.75 30.63 20.44 31.9 16.83 31.9C13.22 31.9 9.91 30.63 7.31 28.5ZM25.01 19.65L21.72 18.33C21.03 18.05 20.56 17.44 20.45 16.73C22 14.93 22.24 12.22 22.24 10.71C22.24 7.8 20.56 4.86 16.83 4.86C13.1 4.86 11.42 7.8 11.42 10.71C11.42 12.22 11.66 14.93 13.21 16.73C13.1 17.44 12.62 18.05 11.94 18.33L8.65001 19.65C6.76001 20.41 5.54001 22.21 5.54001 24.25V26.8C3.19001 24.15 1.75999 20.66 1.75999 16.84C1.75999 8.53 8.52 1.77 16.83 1.77C25.14 1.77 31.9 8.53 31.9 16.84C31.9 20.66 30.47 24.16 28.11 26.81V24.25C28.11 22.21 26.9 20.41 25.01 19.65Z" fill="white"/>
</svg>
