<svg width="28" height="33" viewBox="0 0 28 33" fill="none" xmlns="http://www.w3.org/2000/svg">
<path d="M0.880005 32.03C0.390005 32.03 0 31.63 0 31.15V0.879997C0 0.389997 0.400005 0 0.880005 0H26.2C26.52 0 26.82 0.179999 26.98 0.459999C27.14 0.739999 27.12 1.09 26.94 1.36L22.04 8.9L26.96 17.19C27.12 17.46 27.13 17.8 26.97 18.08C26.81 18.36 26.52 18.53 26.2 18.53H1.75999V31.15C1.75999 31.63 1.37 32.03 0.880005 32.03ZM1.75999 16.76H24.65L20.24 9.34C20.07 9.05 20.08 8.69 20.26 8.41L24.58 1.77H1.77V16.76H1.75999Z" fill="white"/>
</svg>
