<svg width="37" height="32" viewBox="0 0 37 32" fill="none" xmlns="http://www.w3.org/2000/svg">
<path fill-rule="evenodd" clip-rule="evenodd" d="M33.0402 15.77L36.3002 11.58L33.4502 11.94C31.7202 4.98999 25.3502 0 18.1502 0C10.8602 0 4.56018 4.94 2.83017 12.01C2.72018 12.49 3.01019 12.96 3.48019 13.08C3.96017 13.19 4.43018 12.91 4.55017 12.43C6.08017 6.14999 11.6802 1.76001 18.1502 1.76001C24.4702 1.76001 30.0702 6.10001 31.6802 12.16L28.8502 12.51L33.0402 15.77ZM18.15 31.5399C25.44 31.5399 31.74 26.5999 33.47 19.5299C33.59 19.0599 33.3 18.5799 32.82 18.4699C32.35 18.3599 31.87 18.6399 31.76 19.1099C30.22 25.3899 24.62 29.7699 18.15 29.7699C11.84 29.7699 6.23001 25.4299 4.62 19.3799L7.45001 19.0299L3.26001 15.7699L0 19.9599L2.85001 19.5999C4.59 26.5499 10.95 31.5399 18.15 31.5399Z" fill="white"/>
</svg>
