<svg width="31" height="33" viewBox="0 0 31 33" fill="none" xmlns="http://www.w3.org/2000/svg">
<path d="M30.84 8.0875C30.83 8.0475 30.82 8.0075 30.8 7.9775C30.75 7.8275 30.66 7.6975 30.54 7.6075C30.5 7.5675 30.46 7.5375 30.41 7.5175C30.38 7.4975 30.35 7.4775 30.32 7.4675L15.83 0.0975C15.58 -0.0325 15.29 -0.0325 15.04 0.0975L0.540001 7.3275C0.510001 7.3375 0.480005 7.3575 0.450005 7.3775C0.400005 7.3975 0.36 7.4275 0.32 7.4675C0.25 7.5175 0.189999 7.5875 0.139999 7.6675C0.0999994 7.7375 0.0700031 7.8075 0.0500031 7.8775C0.0500031 7.8775 0.0400009 7.8875 0.0400009 7.8975C0.0200009 7.9675 0 8.0375 0 8.1075V24.8375C0 25.1775 0.19 25.4775 0.5 25.6275L15.04 32.8275C15.16 32.8875 15.29 32.9175 15.43 32.9175C15.49 32.9175 15.55 32.9075 15.61 32.8975C15.65 32.8875 15.69 32.8775 15.73 32.8575C15.8 32.8375 15.87 32.8075 15.92 32.7675L30.38 25.3575C30.67 25.2075 30.86 24.8975 30.86 24.5675V8.2775C30.86 8.2075 30.85 8.1475 30.84 8.0875ZM28.02 8.2775L15.44 14.6075L10.27 11.9575L22.89 5.6675L28.02 8.2775ZM15.43 1.8775L20.93 4.6675L8.32 10.9575L2.84 8.1475L15.43 1.8775ZM1.77 9.5775L7.43 12.4875V20.1475C7.43 20.6375 7.82001 21.0275 8.31001 21.0275C8.80001 21.0275 9.19 20.6375 9.19 20.1475V13.3875L14.55 16.1375V30.6175L1.77 24.2875V9.5775V9.5775ZM29.09 24.0275L16.31 30.5875V16.1475L29.09 9.7075V24.0275Z" fill="white"/>
</svg>
