<svg width="33" height="33" viewBox="0 0 33 33" fill="none" xmlns="http://www.w3.org/2000/svg">
<path d="M16.35 32.7C7.33 32.7 0 25.37 0 16.35C0 7.33 7.34 0 16.35 0C25.37 0 32.7 7.33 32.7 16.35C32.7 25.37 25.37 32.7 16.35 32.7ZM16.35 1.76C8.31 1.76 1.75999 8.3 1.75999 16.34C1.75999 24.38 8.3 30.92 16.35 30.92C24.39 30.92 30.93 24.38 30.93 16.34C30.93 8.3 24.39 1.76 16.35 1.76ZM17.67 23.53C19.91 23.28 22.29 22.26 22.29 19.15C22.29 13.28 13.5 15.78 13.5 12.67C13.5 11.36 14.73 11.1 16.38 11.1C18.1 11.1 18.88 11.33 19.92 11.69C20.13 11.78 20.34 11.8 20.53 11.8C21.34 11.8 21.8 11.19 21.8 10.55C21.8 10.1 21.59 9.66 21.08 9.41C20.36 9.07 19.13 8.71 17.67 8.58V7.48C17.67 6.59 16.93 6.17 16.19 6.17C15.43 6.17 14.66 6.61 14.66 7.48V8.64C12.67 8.96 10.59 9.93 10.59 12.77C10.59 18.55 19.4 16.09 19.4 19.25C19.4 20.6 17.98 21.05 16.05 21.05C14.23 21.05 12.96 20.71 11.77 20.27C10.75 19.93 9.99 20.69 9.99 21.5C9.99 21.9 10.2 22.33 10.67 22.6C11.43 23.05 12.96 23.41 14.65 23.55V24.99C14.65 25.86 15.39 26.3 16.13 26.3C16.89 26.3 17.65 25.85 17.65 24.99V23.53" fill="white"/>
</svg>
