<svg width="24" height="29" viewBox="0 0 24 29" fill="none" xmlns="http://www.w3.org/2000/svg">
<path d="M22.81 28.71H0.880001C0.390001 28.71 0 28.31 0 27.83V0.880001C0 0.390001 0.400001 0 0.880001 0H22.81C23.3 0 23.69 0.400001 23.69 0.880001V27.83C23.7 28.31 23.3 28.71 22.81 28.71ZM1.76 26.94H21.93V1.76H1.76V26.94ZM18.21 8C18.21 7.51 17.81 7.12 17.33 7.12H6.36C5.87 7.12 5.48 7.52 5.48 8C5.48 8.48 5.88 8.88 6.36 8.88H17.33C17.82 8.89 18.21 8.49 18.21 8ZM12.02 14.48C12.02 13.99 11.62 13.6 11.14 13.6H6.36C5.87 13.6 5.48 14 5.48 14.48C5.48 14.96 5.88 15.36 6.36 15.36H11.14C11.63 15.36 12.02 14.96 12.02 14.48ZM18.21 20.7C18.21 20.21 17.81 19.82 17.33 19.82H12.63C12.14 19.82 11.75 20.22 11.75 20.7C11.75 21.18 12.15 21.58 12.63 21.58H17.33C17.82 21.58 18.21 21.18 18.21 20.7ZM18.21 14.48C18.21 13.99 17.81 13.6 17.33 13.6H15.36C14.87 13.6 14.48 14 14.48 14.48C14.48 14.96 14.88 15.36 15.36 15.36H17.32C17.82 15.36 18.21 14.96 18.21 14.48ZM9.27999 20.7C9.27999 20.21 8.88 19.82 8.4 19.82H6.42C5.93 19.82 5.54 20.22 5.54 20.7C5.54 21.18 5.94 21.58 6.42 21.58H8.4C8.88 21.58 9.27999 21.18 9.27999 20.7Z" fill="white"/>
</svg>
