<svg width="31" height="25" viewBox="0 0 31 25" fill="none" xmlns="http://www.w3.org/2000/svg">
<path d="M8.59 24.81H0V18.75H8.59V24.81ZM1 23.81H7.59V19.75H1V23.81ZM30.09 24.81H21.5V18.75H30.09V24.81ZM22.5 23.81H29.09V19.75H22.5V23.81ZM19.34 24.81H10.75V18.75H19.34V24.81ZM11.75 23.81H18.34V19.75H11.75V23.81ZM4.79 13.43H15.54V8.5H14.54V12.43H3.79V16.72H4.79V13.43ZM26.29 12.43H14.54V16.72H15.54V13.43H25.29V16.72H26.29V12.43ZM15.04 8.32C12.75 8.32 10.88 6.46 10.88 4.16C10.88 1.87 12.74 0 15.04 0C17.34 0 19.2 1.86 19.2 4.16C19.2 6.46 17.33 8.32 15.04 8.32ZM15.04 1.01C13.3 1.01 11.88 2.43 11.88 4.17C11.88 5.91 13.3 7.33 15.04 7.33C16.78 7.33 18.2 5.91 18.2 4.17C18.2 2.43 16.78 1.01 15.04 1.01Z" fill="white"/>
</svg>
