<svg width="203" height="41" viewBox="0 0 203 41" fill="none" xmlns="http://www.w3.org/2000/svg">
<path fill-rule="evenodd" clip-rule="evenodd" d="M52.54 25.04V40H49.89V31.63L46.31 29.44V40H43.65V27.82L40.07 25.63V40H37.42V15.68L33.84 13.49V40H31.18V11.87L27.6 9.68001V40H24.95V9.68001L21.37 11.87V40H18.71V13.49L15.13 15.68V40H12.48V25.63L8.89 27.82V40H6.24V29.44L2.66 31.63V40H0V25.04L12.48 17.32V9.09L26.27 0.660004L40.07 9.09V17.32L52.54 25.04ZM68.41 16.19H71.31L72.57 13.43H81.33L82.58 16.19H85.48L78.3 0.239998H75.59L68.41 16.19ZM73.55 11.17L75.37 7.03999C76.08 5.43999 76.94 3.32 76.94 3.32C76.94 3.32 77.83 5.45999 78.51 7.03999L80.33 11.17H73.55ZM88.93 8.19C88.93 12.77 92.5 16.43 97.32 16.43C99.61 16.43 101.63 15.59 103.1 14.24L101.35 12.27C100.32 13.28 98.89 13.85 97.34 13.85C94.21 13.85 91.9 11.27 91.9 8.19C91.9 5.14 94.21 2.58 97.51 2.58C98.76 2.58 99.95 2.95 101.03 3.79L102.68 1.87C101.28 0.690003 99.38 0 97.31 0C92.5 0 88.93 3.66 88.93 8.19ZM107.61 16.19H110.46V5.12C110.46 5.12 110.98 6.03001 111.96 7.46001L115.92 13.12L119.83 7.50999C120.86 6.00999 121.36 5.12 121.36 5.12V16.19H124.21V0.239998H121.72L119.51 3.36C118.4 4.94 115.92 8.45 115.92 8.45C115.92 8.45 113.43 4.91 112.3 3.33L110.08 0.230003H107.6V16.19H107.61ZM130.08 16.19H142.8V13.73H132.93V9.03H141.91V6.59H132.93V2.7H142.45V0.239998H130.08V16.19ZM69.22 31.91C69.22 36.49 72.79 40.15 77.61 40.15C79.9 40.15 81.92 39.31 83.39 37.96L81.64 35.99C80.61 37 79.18 37.57 77.63 37.57C74.5 37.57 72.19 34.99 72.19 31.91C72.19 28.86 74.5 26.3 77.8 26.3C79.05 26.3 80.24 26.67 81.32 27.51L82.97 25.59C81.57 24.41 79.67 23.72 77.6 23.72C72.79 23.72 69.22 27.38 69.22 31.91ZM87.19 31.94C87.19 36.52 90.76 40.16 95.58 40.16C100.4 40.16 103.97 36.52 103.97 31.94C103.97 27.39 100.4 23.72 95.58 23.72C90.75 23.72 87.19 27.38 87.19 31.94ZM100.99 31.94C100.99 35.02 98.68 37.58 95.6 37.58C92.47 37.58 90.16 35.02 90.16 31.94C90.16 28.86 92.47 26.31 95.6 26.31C98.68 26.3 100.99 28.86 100.99 31.94ZM109.21 39.91H112.06V28.84C112.06 28.84 112.58 29.75 113.56 31.18L117.52 36.84L121.43 31.23C122.46 29.73 122.96 28.84 122.96 28.84V39.91H125.81V23.96H123.33L121.11 27.08C120 28.66 117.52 32.17 117.52 32.17C117.52 32.17 115.03 28.63 113.9 27.05L111.68 23.95H109.2V39.91H109.21ZM131.68 39.91H134.53V36.12H138.37C142.97 36.12 145.41 33.41 145.41 30.04C145.41 26.69 142.97 23.96 138.4 23.96H131.68V39.91ZM134.53 33.66V26.43H138.59C140.95 26.43 142.43 28.05 142.43 30.05C142.43 32.04 140.95 33.67 138.57 33.67H134.53V33.66ZM147.09 39.91H149.99L151.25 37.15H160.01L161.27 39.91H164.17L156.99 23.96H154.28L147.09 39.91ZM152.23 34.89L154.05 30.76C154.76 29.16 155.63 27.04 155.63 27.04C155.63 27.04 156.52 29.18 157.2 30.76L159.02 34.89H152.23ZM168.59 39.91H171.44V28.42C171.44 28.42 172.72 30.59 174.1 32.48L179.54 39.91H182.49V23.96H179.64V35.55C179.64 35.55 178.34 33.34 177.2 31.79L171.49 23.96H168.59V39.91V39.91ZM193.11 39.91H195.96V32.53L202.09 23.97H198.82L195.79 28.32C195.13 29.26 194.53 30.12 194.53 30.12C194.53 30.12 194.04 29.31 193.32 28.32L190.2 23.97H186.93L193.11 32.56V39.91V39.91Z" fill="white"/>
</svg>
